<svg width="80" height="70" viewBox="0 0 80 70" fill="none" xmlns="http://www.w3.org/2000/svg">
<path d="M13.0382 12.0107C13.1024 12.0107 13.1666 12.0383 13.2584 12.0658C13.2584 31.068 13.2584 50.0701 13.2584 69.0998C9.13864 69.421 5.66118 68.3841 2.89939 65.7233C0.945041 63.8332 -2.18721e-05 61.6127 -2.18721e-05 59.0987C-2.18721e-05 50.1986 -2.18721e-05 41.3077 -2.18721e-05 32.4076C-2.18721e-05 29.0127 -0.00919724 25.6178 -0.00919724 22.2229C-0.00919724 18.1215 2.20207 15.1395 6.26675 13.1209C8.35873 12.0933 10.6801 11.9373 13.0382 12.0107Z" fill="url(#paint0_linear_0_1)"/>
<path d="M58.096 -2H21V12.02H58.096V-2Z" fill="url(#paint1_linear_0_1)"/>
<path d="M80 22.0762C80 18.2959 77.9356 15.4791 74.2654 13.433C72.0083 12.176 69.4483 11.9374 66.8242 11.9925C66.4205 12.0016 66.4755 12.2127 66.4755 12.4329C66.4755 19.0391 66.4755 25.6362 66.4755 32.2425C66.4755 43.8493 66.4755 55.447 66.4663 67.0538C66.4663 67.7236 66.4663 68.3934 66.4663 69.1183C68.1179 69.1733 69.6869 69.1825 71.2284 68.8155C76.44 67.586 79.9908 63.7048 79.9908 59.1263C80.0092 46.7854 80 34.4262 80 22.0762Z" fill="url(#paint2_linear_0_1)"/>
<path d="M44.2161 44.7852C44.2161 45.9688 44.2161 47.0882 44.2161 48.2168C44.2161 49.4921 44.2161 50.7675 44.2161 52.0337C44.2161 52.7953 43.8307 53.199 43.0783 53.199C41.0047 53.2082 38.9311 53.2082 36.8574 53.199C36.1693 53.199 35.7839 52.7677 35.7839 52.0429C35.7839 49.7674 35.7839 47.4919 35.7839 45.2164C35.7839 45.088 35.7839 44.9503 35.7839 44.7852C35.6096 44.7852 35.4811 44.7852 35.3435 44.7852C33.1047 44.7852 30.8567 44.7852 28.618 44.7852C27.7279 44.7852 27.3609 44.4273 27.3609 43.5373C27.3609 41.5646 27.3609 39.5919 27.3609 37.6192C27.3609 36.72 27.7188 36.3622 28.6088 36.3622C30.8384 36.3622 33.068 36.3622 35.2976 36.3622C35.4444 36.3622 35.5821 36.3622 35.7747 36.3622C35.7747 36.2154 35.7747 36.0961 35.7747 35.9768C35.7747 33.7013 35.7747 31.4258 35.7747 29.1504C35.7747 28.3062 36.1509 27.9392 36.9951 27.9392C38.9678 27.9392 40.9405 27.9392 42.9132 27.9392C43.8399 27.9392 44.1977 28.2879 44.1977 29.2329C44.2069 31.4901 44.1977 33.738 44.1977 35.9952C44.1977 36.1053 44.1977 36.2154 44.1977 36.3714C44.3445 36.3714 44.473 36.3714 44.5923 36.3714C46.8678 36.3714 49.1432 36.3714 51.4187 36.3805C52.2537 36.3805 52.6115 36.7476 52.6115 37.5825C52.6115 39.5644 52.6115 41.5463 52.6115 43.5282C52.6115 44.4365 52.2629 44.7852 51.3729 44.7852C49.1065 44.7852 46.8402 44.7852 44.5831 44.7944C44.4913 44.7852 44.3812 44.7852 44.2161 44.7852Z" fill="url(#paint3_linear_0_1)"/>
<defs>
<linearGradient id="paint0_linear_0_1" x1="-2.18711e-05" y1="40.5746" x2="13.2597" y2="40.5746" gradientUnits="userSpaceOnUse">
<stop stop-color="#6CBCFC"/>
<stop offset="1" stop-color="#458DFC"/>
</linearGradient>
<linearGradient id="paint1_linear_0_1" x1="20.9962" y1="5.00849" x2="58.0944" y2="5.00849" gradientUnits="userSpaceOnUse">
<stop stop-color="#6CBCFC"/>
<stop offset="1" stop-color="#458DFC"/>
</linearGradient>
<linearGradient id="paint2_linear_0_1" x1="66.4686" y1="40.569" x2="80.0007" y2="40.569" gradientUnits="userSpaceOnUse">
<stop stop-color="#6CBCFC"/>
<stop offset="1" stop-color="#458DFC"/>
</linearGradient>
<linearGradient id="paint3_linear_0_1" x1="27.3666" y1="40.5783" x2="52.6299" y2="40.5783" gradientUnits="userSpaceOnUse">
<stop stop-color="#6CBCFC"/>
<stop offset="1" stop-color="#458DFC"/>
</linearGradient>
</defs>
</svg>
